<?xml version="1.0" encoding="UTF-8" standalone="no"?>
<!-- Created with Inkscape (http://www.inkscape.org/) -->
<svg
   xmlns:dc="http://purl.org/dc/elements/1.1/"
   xmlns:cc="http://web.resource.org/cc/"
   xmlns:rdf="http://www.w3.org/1999/02/22-rdf-syntax-ns#"
   xmlns:svg="http://www.w3.org/2000/svg"
   xmlns="http://www.w3.org/2000/svg"
   xmlns:sodipodi="http://sodipodi.sourceforge.net/DTD/sodipodi-0.dtd"
   xmlns:inkscape="http://www.inkscape.org/namespaces/inkscape"
   width="128"
   height="106"
   id="svg2"
   sodipodi:version="0.32"
   inkscape:version="0.44.1"
   sodipodi:docbase="J:\Program Files\Inkscape"
   sodipodi:docname="ship3.svg"
   version="1.0">
  <defs
     id="defs4" />
  <sodipodi:namedview
     id="base"
     pagecolor="#ffffff"
     bordercolor="#666666"
     borderopacity="1.0"
     gridtolerance="10000"
     guidetolerance="10"
     objecttolerance="10"
     inkscape:pageopacity="0.0"
     inkscape:pageshadow="2"
     inkscape:zoom="31.678384"
     inkscape:cx="49.172752"
     inkscape:cy="97.426204"
     inkscape:document-units="px"
     inkscape:current-layer="layer1"
     inkscape:window-width="1024"
     inkscape:window-height="721"
     inkscape:window-x="-4"
     inkscape:window-y="-4"
     height="1052.36px"
     width="744.09448px" />
  <metadata
     id="metadata7">
    <rdf:RDF>
      <cc:Work
         rdf:about="">
        <dc:format>image/svg+xml</dc:format>
        <dc:type
           rdf:resource="http://purl.org/dc/dcmitype/StillImage" />
      </cc:Work>
    </rdf:RDF>
  </metadata>
  <g
     inkscape:label="Layer 1"
     inkscape:groupmode="layer"
     id="layer1"
     transform="translate(-780.9559,-622.9051)">
    <path
       style="fill:#333;fill-rule:evenodd;stroke:#1a1a1a;stroke-width:1px;stroke-linecap:butt;stroke-linejoin:miter;stroke-opacity:1"
       d="M 47.589286,2.785714 C 47.589286,2.785714 67.589286,21.803571 63.125,23.678571 C 63.125,23.678571 48.214286,0.37499972 46.964286,4.1249997 C 45.714286,7.8749997 45.714286,7.8749997 45.714286,7.8749997"
       id="path2194"
       transform="translate(780.9559,622.9051)"
       sodipodi:nodetypes="cs" />
    <path
       style="fill:#1a1a1a;fill-rule:evenodd;stroke:#1a1a1a;stroke-width:1px;stroke-linecap:butt;stroke-linejoin:miter;stroke-opacity:1"
       d="M 62.321429,48.678571 C 62.321429,48.678571 62.321429,48.678571 62.589286,45.196428 C 62.857143,41.714286 48.125,30.196428 48.125,30.196428 C 48.125,30.196428 65.178572,37.428571 65.535714,40.107143 C 65.892857,42.785714 65.892857,42.785714 65.892857,42.785714 L 62.678572,46.446428"
       id="path2188"
       transform="translate(780.9559,622.9051)" />
    <path
       style="fill:#1a1a1a;fill-rule:evenodd;stroke:#1a1a1a;stroke-width:1px;stroke-linecap:butt;stroke-linejoin:miter;stroke-opacity:1"
       d="M 44.464286,63.767857 C 44.464286,63.767857 44.464286,63.767857 47.321429,63.589286 C 50.178572,63.410714 58.303572,46.178571 58.303572,46.178571 C 58.303572,46.178571 52.142857,63.053571 50.089286,62.964286 C 48.035714,62.875 48.035714,62.875 48.035714,62.875"
       id="path2190"
       transform="translate(780.9559,622.9051)" />
    <path
       style="fill:#1a1a1a;fill-rule:evenodd;stroke:#1a1a1a;stroke-width:1px;stroke-linecap:butt;stroke-linejoin:miter;stroke-opacity:1"
       d="M 90,65.107143 L 77.410714,49.303571 C 77.410714,49.303571 87.857143,70.196428 86.25,73.946428 L 90.535715,60.553571"
       id="path2178"
       transform="translate(780.9559,622.9051)"
       sodipodi:nodetypes="ccs" />
    <path
       style="fill:#1a1a1a;fill-rule:evenodd;stroke:#1a1a1a;stroke-width:1px;stroke-linecap:butt;stroke-linejoin:miter;stroke-opacity:1"
       d="M 84.642857,57.071428 C 84.642857,57.071428 80.267857,38.053571 76.160714,37.339286 C 76.160714,37.339286 89.642857,45.732143 89.285715,47.428571 L 84.642857,57.071428 z "
       id="path2180"
       transform="translate(780.9559,622.9051)"
       sodipodi:nodetypes="css" />
    <path
       style="fill:black;fill-rule:evenodd;stroke:black;stroke-width:1px;stroke-linecap:butt;stroke-linejoin:miter;stroke-opacity:1"
       d="M 906.61191,712.69839 L 856.8619,638.70471 C 868.22611,645.77578 866.20581,711.4357 866.20581,711.4357 L 888.6817,713.96108 L 879.59033,701.58671 C 879.59033,701.58671 905.35714,708.61218 904.64286,710.3979"
       id="path2106"
       sodipodi:nodetypes="cscccs" />
    <path
       style="fill:white;fill-rule:evenodd;stroke:black;stroke-width:1px;stroke-linecap:butt;stroke-linejoin:miter;stroke-opacity:1"
       d="M 901.78572,705.57647 C 901.78572,705.57647 880.17857,675.3979 877.67857,679.86218 C 877.67857,679.86218 900.96683,706.32139 902.03826,705.96424"
       id="path2129"
       sodipodi:nodetypes="css" />
    <path
       style="fill:black;fill-rule:evenodd;stroke:black;stroke-width:1px;stroke-linecap:butt;stroke-linejoin:miter;stroke-opacity:1"
       d="M 55.535714,93.232143 L 52.946429,93.232143 L 52.946429,89.035714 L 2.0535714,85.732143 L 2.0535714,84.571429 L 7.3214286,84.571429 C 29.107143,68.5 29.464286,20.821428 29.464286,20.821428 L 33.524438,23.009655"
       id="path2131"
       transform="translate(780.9559,622.9051)"
       sodipodi:nodetypes="cs" />
    <path
       style="fill:black;fill-rule:evenodd;stroke:black;stroke-width:1px;stroke-linecap:butt;stroke-linejoin:miter;stroke-opacity:1"
       d="M 99.107143,104.92857 L 22.5,104.92857 L 10.714286,94.928571 L 31.785714,94.928571 L 31.785714,93.321429 L 56.071429,93.321429 L 56.071429,96.446429 L 78.928572,96.446429 L 108.03571,91.357143 L 99.821429,99.75 L 99.107143,104.92857 z "
       id="path2133"
       transform="translate(780.9559,622.9051)" />
    <path
       style="fill:black;fill-rule:evenodd;stroke:black;stroke-width:1px;stroke-linecap:butt;stroke-linejoin:miter;stroke-opacity:1"
       d="M 55.178572,93.321429 L 47.855977,2.2068258 L 46.151345,2.2068258 C 46.151345,2.2068258 43.373425,17.485383 32.956227,23.420029"
       id="path2135"
       transform="translate(780.9559,622.9051)"
       sodipodi:nodetypes="cccs" />
    <path
       style="fill:none;fill-rule:evenodd;stroke:black;stroke-width:1px;stroke-linecap:butt;stroke-linejoin:miter;stroke-opacity:1"
       d="M 99.196429,104.48214 L 126.60714,88.767857"
       id="path2161"
       transform="translate(780.9559,622.9051)" />
    <path
       style="fill:black;fill-rule:evenodd;stroke:black;stroke-width:1px;stroke-linecap:butt;stroke-linejoin:miter;stroke-opacity:1"
       d="M 123.03571,90.821429 L 106.875,92.875"
       id="path2163"
       transform="translate(780.9559,622.9051)" />
    <path
       style="fill:black;fill-rule:evenodd;stroke:black;stroke-width:1px;stroke-linecap:butt;stroke-linejoin:miter;stroke-opacity:1"
       d="M 108.21429,91.267857 L 126.42857,88.946429"
       id="path2165"
       transform="translate(780.9559,622.9051)" />
    <path
       style="fill:black;fill-rule:evenodd;stroke:black;stroke-width:1px;stroke-linecap:butt;stroke-linejoin:miter;stroke-opacity:1"
       d="M 78.571429,96.892857 L 78.571429,91.714286 L 56.428572,88.5 C 61.964286,87.071429 59.642857,51.357143 59.642857,51.357143 L 56.25,51.357143 L 57.321429,35.285714 L 55.714286,11 L 74.017857,24.482143 L 74.017857,10.285714 L 75.625,10.285714 L 81.964286,95.642857"
       id="path2171"
       transform="translate(780.9559,622.9051)"
       sodipodi:nodetypes="ccccs" />
    <path
       style="fill:none;fill-rule:evenodd;stroke:black;stroke-width:1px;stroke-linecap:butt;stroke-linejoin:miter;stroke-opacity:1"
       d="M 46.964286,60.910714 L 51.160714,64.303571"
       id="path2192"
       transform="translate(780.9559,622.9051)" />
    <path
       style="fill:none;fill-rule:evenodd;stroke:black;stroke-width:1.87082875px;stroke-linecap:butt;stroke-linejoin:miter;stroke-opacity:1"
       d="M 796.5809,708.19081 L 796.5809,719.26224"
       id="path3083" />
  </g>
</svg>
