<?xml version="1.0" standalone="no"?>
<!DOCTYPE svg PUBLIC "-//W3C//DTD SVG 20010904//EN"
 "http://www.w3.org/TR/2001/REC-SVG-20010904/DTD/svg10.dtd">
<svg version="1.0" xmlns="http://www.w3.org/2000/svg"
 width="1280.000000pt" height="1280.000000pt" viewBox="0 0 1280.000000 1280.000000"
 preserveAspectRatio="xMidYMid meet">
<g transform="translate(0.000000,1280.000000) scale(0.100000,-0.100000)"
fill="#000000" stroke="none">
<path d="M6145 12789 c-44 -4 -170 -15 -280 -24 -1187 -97 -2358 -543 -3321
-1267 -1350 -1013 -2224 -2493 -2468 -4178 -23 -158 -33 -259 -66 -660 -13
-158 -13 -365 0 -500 5 -58 17 -190 25 -295 78 -960 388 -1920 893 -2765 957
-1599 2549 -2684 4402 -2999 439 -75 1019 -116 1305 -92 77 6 222 18 322 26
1176 98 2336 543 3299 1267 1350 1013 2224 2493 2468 4178 23 158 33 259 66
660 13 158 13 365 0 500 -5 58 -17 191 -25 295 -96 1183 -542 2354 -1265 3319
-1009 1348 -2495 2226 -4180 2470 -158 23 -259 33 -660 66 -142 12 -397 11
-515 -1z m685 -1264 c1111 -101 2105 -522 2945 -1248 131 -113 389 -373 510
-512 536 -620 900 -1318 1104 -2115 178 -696 201 -1470 65 -2200 -151 -810
-511 -1598 -1028 -2245 -256 -321 -583 -642 -901 -886 -624 -479 -1356 -811
-2120 -963 -553 -109 -1163 -128 -1710 -51 -913 129 -1776 499 -2490 1069
-160 128 -250 208 -419 375 -808 796 -1324 1818 -1475 2921 -36 264 -45 402
-45 690 0 526 67 985 218 1497 396 1334 1364 2506 2581 3123 598 303 1226 485
1880 544 210 19 680 20 885 1z"/>
<path d="M4983 8640 c-55 -28 -95 -90 -136 -209 l-32 -96 2 -710 c1 -390 7
-1275 13 -1965 11 -1184 12 -1260 30 -1338 28 -116 56 -175 105 -221 73 -67
161 -73 333 -22 54 17 447 239 1744 987 1567 904 1677 969 1741 1032 92 90
131 169 125 249 -10 137 -107 244 -350 385 -3395 1976 -3278 1911 -3458 1924
-64 5 -81 2 -117 -16z"/>
</g>
</svg>
